<mxfile host="Electron" modified="2024-01-16T11:52:59.167Z" agent="Mozilla/5.0 (Windows NT 10.0; Win64; x64) AppleWebKit/537.36 (KHTML, like Gecko) draw.io/22.0.2 Chrome/114.0.5735.289 Electron/25.8.4 Safari/537.36" etag="5ZgreqSL82dgekDLXoqV" version="22.0.2" type="device" pages="2">
  <diagram id="zX-huQHcJbhSJxKOUhc5" name="Page-1">
    <mxGraphModel dx="1996" dy="1228" grid="1" gridSize="10" guides="1" tooltips="1" connect="1" arrows="1" fold="1" page="1" pageScale="1" pageWidth="827" pageHeight="1169" math="0" shadow="0">
      <root>
        <mxCell id="0" />
        <mxCell id="1" parent="0" />
        <mxCell id="eHQjN0FKdP73UgatA0XD-113" value="" style="rounded=1;whiteSpace=wrap;html=1;fillColor=#f5f5f5;arcSize=4;fontColor=#333333;strokeColor=#666666;" parent="1" vertex="1">
          <mxGeometry x="505" y="530" width="155" height="310" as="geometry" />
        </mxCell>
        <mxCell id="LQBBKpXPM4I-AXH5A9s--74" style="edgeStyle=orthogonalEdgeStyle;rounded=0;orthogonalLoop=1;jettySize=auto;html=1;exitX=1;exitY=0.5;exitDx=0;exitDy=0;entryX=0.75;entryY=1;entryDx=0;entryDy=0;fontFamily=Lucida Console;fontSize=12;endArrow=blockThin;endFill=1;" parent="1" source="LQBBKpXPM4I-AXH5A9s--69" target="LQBBKpXPM4I-AXH5A9s--80" edge="1">
          <mxGeometry relative="1" as="geometry">
            <mxPoint x="190" y="340" as="targetPoint" />
          </mxGeometry>
        </mxCell>
        <mxCell id="LQBBKpXPM4I-AXH5A9s--69" value="&lt;span style=&quot;font-family: &amp;quot;Lucida Console&amp;quot;;&quot;&gt;s_data&lt;/span&gt;" style="text;html=1;strokeColor=none;fillColor=none;align=right;verticalAlign=middle;whiteSpace=wrap;rounded=0;" parent="1" vertex="1">
          <mxGeometry x="80" y="330" width="70" height="20" as="geometry" />
        </mxCell>
        <mxCell id="LQBBKpXPM4I-AXH5A9s--75" style="edgeStyle=orthogonalEdgeStyle;rounded=0;orthogonalLoop=1;jettySize=auto;html=1;exitX=0;exitY=0.5;exitDx=0;exitDy=0;entryX=1;entryY=0.5;entryDx=0;entryDy=0;fontFamily=Lucida Console;fontSize=12;endArrow=blockThin;endFill=1;" parent="1" source="LQBBKpXPM4I-AXH5A9s--76" target="LQBBKpXPM4I-AXH5A9s--79" edge="1">
          <mxGeometry relative="1" as="geometry" />
        </mxCell>
        <mxCell id="LQBBKpXPM4I-AXH5A9s--76" value="&lt;b&gt;&lt;font style=&quot;font-size: 16px;&quot;&gt;T&lt;/font&gt;&lt;/b&gt;" style="rounded=0;whiteSpace=wrap;html=1;" parent="1" vertex="1">
          <mxGeometry x="445" y="370" width="40" height="40" as="geometry" />
        </mxCell>
        <mxCell id="LQBBKpXPM4I-AXH5A9s--78" value="&lt;span style=&quot;font-family: &amp;quot;Lucida Console&amp;quot;;&quot;&gt;m_ready&lt;/span&gt;" style="text;html=1;strokeColor=none;fillColor=none;align=left;verticalAlign=middle;whiteSpace=wrap;rounded=0;" parent="1" vertex="1">
          <mxGeometry x="680" y="380" width="80" height="20" as="geometry" />
        </mxCell>
        <mxCell id="LQBBKpXPM4I-AXH5A9s--79" value="&lt;span style=&quot;font-family: &amp;quot;Lucida Console&amp;quot;;&quot;&gt;s_ready&lt;/span&gt;" style="text;html=1;strokeColor=none;fillColor=none;align=right;verticalAlign=middle;whiteSpace=wrap;rounded=0;" parent="1" vertex="1">
          <mxGeometry x="80" y="380" width="70" height="20" as="geometry" />
        </mxCell>
        <mxCell id="LQBBKpXPM4I-AXH5A9s--94" style="edgeStyle=orthogonalEdgeStyle;rounded=0;orthogonalLoop=1;jettySize=auto;html=1;exitX=0.5;exitY=0;exitDx=0;exitDy=0;entryX=0;entryY=0.5;entryDx=0;entryDy=0;fontFamily=Lucida Console;fontSize=12;endArrow=blockThin;endFill=1;" parent="1" source="LQBBKpXPM4I-AXH5A9s--80" target="LQBBKpXPM4I-AXH5A9s--93" edge="1">
          <mxGeometry relative="1" as="geometry" />
        </mxCell>
        <mxCell id="LQBBKpXPM4I-AXH5A9s--80" value="&lt;font style=&quot;font-size: 12px;&quot;&gt;0&lt;br&gt;&lt;br&gt;1&lt;/font&gt;" style="shape=trapezoid;perimeter=trapezoidPerimeter;whiteSpace=wrap;html=1;fixedSize=1;fontFamily=Lucida Console;fontSize=16;direction=south;size=10;" parent="1" vertex="1">
          <mxGeometry x="330" y="280" width="30" height="80" as="geometry" />
        </mxCell>
        <mxCell id="LQBBKpXPM4I-AXH5A9s--88" style="edgeStyle=orthogonalEdgeStyle;rounded=0;orthogonalLoop=1;jettySize=auto;html=1;exitX=1;exitY=0.5;exitDx=0;exitDy=0;entryX=0.25;entryY=1;entryDx=0;entryDy=0;fontFamily=Lucida Console;fontSize=12;endArrow=blockThin;endFill=1;" parent="1" source="LQBBKpXPM4I-AXH5A9s--81" target="LQBBKpXPM4I-AXH5A9s--85" edge="1">
          <mxGeometry relative="1" as="geometry">
            <Array as="points">
              <mxPoint x="310" y="290" />
              <mxPoint x="310" y="240" />
              <mxPoint x="180" y="240" />
              <mxPoint x="180" y="270" />
            </Array>
          </mxGeometry>
        </mxCell>
        <mxCell id="LQBBKpXPM4I-AXH5A9s--81" value="&lt;b&gt;&lt;font style=&quot;font-size: 16px;&quot;&gt;T&lt;/font&gt;&lt;/b&gt;" style="rounded=0;whiteSpace=wrap;html=1;" parent="1" vertex="1">
          <mxGeometry x="260" y="270" width="40" height="40" as="geometry" />
        </mxCell>
        <mxCell id="LQBBKpXPM4I-AXH5A9s--87" style="edgeStyle=orthogonalEdgeStyle;rounded=0;orthogonalLoop=1;jettySize=auto;html=1;exitX=0.5;exitY=0;exitDx=0;exitDy=0;entryX=0;entryY=0.5;entryDx=0;entryDy=0;fontFamily=Lucida Console;fontSize=12;endArrow=blockThin;endFill=1;" parent="1" source="LQBBKpXPM4I-AXH5A9s--85" target="LQBBKpXPM4I-AXH5A9s--81" edge="1">
          <mxGeometry relative="1" as="geometry" />
        </mxCell>
        <mxCell id="LQBBKpXPM4I-AXH5A9s--85" value="&lt;font style=&quot;font-size: 12px;&quot;&gt;0&lt;br&gt;&lt;br&gt;1&lt;/font&gt;" style="shape=trapezoid;perimeter=trapezoidPerimeter;whiteSpace=wrap;html=1;fixedSize=1;fontFamily=Lucida Console;fontSize=16;direction=south;size=10;" parent="1" vertex="1">
          <mxGeometry x="200" y="250" width="30" height="80" as="geometry" />
        </mxCell>
        <mxCell id="LQBBKpXPM4I-AXH5A9s--93" value="&lt;span style=&quot;font-family: &amp;quot;Lucida Console&amp;quot;;&quot;&gt;m_data&lt;/span&gt;" style="text;html=1;strokeColor=none;fillColor=none;align=left;verticalAlign=middle;whiteSpace=wrap;rounded=0;" parent="1" vertex="1">
          <mxGeometry x="680" y="310" width="80" height="20" as="geometry" />
        </mxCell>
        <mxCell id="LQBBKpXPM4I-AXH5A9s--106" value="&lt;font color=&quot;#007fff&quot; style=&quot;font-size: 10px;&quot; face=&quot;Lucida Console&quot;&gt;skd_data&lt;/font&gt;" style="text;html=1;strokeColor=none;fillColor=none;align=center;verticalAlign=middle;whiteSpace=wrap;rounded=0;" parent="1" vertex="1">
          <mxGeometry x="240" y="220" width="70" height="20" as="geometry" />
        </mxCell>
        <mxCell id="LQBBKpXPM4I-AXH5A9s--108" value="&lt;font color=&quot;#007fff&quot; style=&quot;font-size: 10px;&quot; face=&quot;Lucida Console&quot;&gt;reg_ready&lt;/font&gt;" style="text;html=1;strokeColor=none;fillColor=none;align=center;verticalAlign=middle;whiteSpace=wrap;rounded=0;" parent="1" vertex="1">
          <mxGeometry x="375" y="370" width="70" height="20" as="geometry" />
        </mxCell>
        <mxCell id="LQBBKpXPM4I-AXH5A9s--110" value="&lt;font color=&quot;#007fff&quot; style=&quot;font-size: 10px;&quot; face=&quot;Lucida Console&quot;&gt;out_data&lt;/font&gt;" style="text;html=1;strokeColor=none;fillColor=none;align=center;verticalAlign=middle;whiteSpace=wrap;rounded=0;" parent="1" vertex="1">
          <mxGeometry x="395" y="300" width="60" height="20" as="geometry" />
        </mxCell>
        <mxCell id="YEiwJ2XpmWJcQByAMYV8-33" value="&lt;font style=&quot;font-size: 18px;&quot;&gt;full pipeline register stage&lt;/font&gt;" style="text;html=1;strokeColor=none;fillColor=none;align=left;verticalAlign=middle;whiteSpace=wrap;rounded=0;" parent="1" vertex="1">
          <mxGeometry x="80" y="490" width="260" height="20" as="geometry" />
        </mxCell>
        <mxCell id="eHQjN0FKdP73UgatA0XD-1" value="" style="endArrow=blockThin;html=1;rounded=0;endFill=1;entryX=0.75;entryY=1;entryDx=0;entryDy=0;startArrow=oval;startFill=1;startSize=4;" parent="1" target="LQBBKpXPM4I-AXH5A9s--85" edge="1">
          <mxGeometry width="50" height="50" relative="1" as="geometry">
            <mxPoint x="180" y="340" as="sourcePoint" />
            <mxPoint x="150" y="290" as="targetPoint" />
            <Array as="points">
              <mxPoint x="180" y="310" />
            </Array>
          </mxGeometry>
        </mxCell>
        <mxCell id="eHQjN0FKdP73UgatA0XD-2" value="" style="endArrow=blockThin;html=1;rounded=0;endFill=1;entryX=0.25;entryY=1;entryDx=0;entryDy=0;startArrow=oval;startFill=1;startSize=4;" parent="1" target="LQBBKpXPM4I-AXH5A9s--80" edge="1">
          <mxGeometry width="50" height="50" relative="1" as="geometry">
            <mxPoint x="310" y="290" as="sourcePoint" />
            <mxPoint x="210" y="320" as="targetPoint" />
            <Array as="points">
              <mxPoint x="310" y="300" />
            </Array>
          </mxGeometry>
        </mxCell>
        <mxCell id="eHQjN0FKdP73UgatA0XD-3" style="edgeStyle=orthogonalEdgeStyle;rounded=0;orthogonalLoop=1;jettySize=auto;html=1;exitX=1;exitY=0.5;exitDx=0;exitDy=0;entryX=0.75;entryY=1;entryDx=0;entryDy=0;fontFamily=Lucida Console;fontSize=12;endArrow=blockThin;endFill=1;" parent="1" source="eHQjN0FKdP73UgatA0XD-4" target="eHQjN0FKdP73UgatA0XD-6" edge="1">
          <mxGeometry relative="1" as="geometry">
            <mxPoint x="190" y="210" as="targetPoint" />
          </mxGeometry>
        </mxCell>
        <mxCell id="eHQjN0FKdP73UgatA0XD-4" value="&lt;span style=&quot;font-family: &amp;quot;Lucida Console&amp;quot;;&quot;&gt;s_valid&lt;/span&gt;" style="text;html=1;strokeColor=none;fillColor=none;align=right;verticalAlign=middle;whiteSpace=wrap;rounded=0;" parent="1" vertex="1">
          <mxGeometry x="80" y="200" width="70" height="20" as="geometry" />
        </mxCell>
        <mxCell id="eHQjN0FKdP73UgatA0XD-5" style="edgeStyle=orthogonalEdgeStyle;rounded=0;orthogonalLoop=1;jettySize=auto;html=1;exitX=0.5;exitY=0;exitDx=0;exitDy=0;entryX=0;entryY=0.5;entryDx=0;entryDy=0;fontFamily=Lucida Console;fontSize=12;endArrow=blockThin;endFill=1;" parent="1" source="eHQjN0FKdP73UgatA0XD-6" target="eHQjN0FKdP73UgatA0XD-11" edge="1">
          <mxGeometry relative="1" as="geometry" />
        </mxCell>
        <mxCell id="eHQjN0FKdP73UgatA0XD-6" value="&lt;font style=&quot;font-size: 12px;&quot;&gt;0&lt;br&gt;&lt;br&gt;1&lt;/font&gt;" style="shape=trapezoid;perimeter=trapezoidPerimeter;whiteSpace=wrap;html=1;fixedSize=1;fontFamily=Lucida Console;fontSize=16;direction=south;size=10;" parent="1" vertex="1">
          <mxGeometry x="330" y="150" width="30" height="80" as="geometry" />
        </mxCell>
        <mxCell id="eHQjN0FKdP73UgatA0XD-7" style="edgeStyle=orthogonalEdgeStyle;rounded=0;orthogonalLoop=1;jettySize=auto;html=1;exitX=1;exitY=0.5;exitDx=0;exitDy=0;entryX=0.25;entryY=1;entryDx=0;entryDy=0;fontFamily=Lucida Console;fontSize=12;endArrow=blockThin;endFill=1;" parent="1" source="eHQjN0FKdP73UgatA0XD-8" target="eHQjN0FKdP73UgatA0XD-10" edge="1">
          <mxGeometry relative="1" as="geometry">
            <Array as="points">
              <mxPoint x="310" y="160" />
              <mxPoint x="310" y="110" />
              <mxPoint x="180" y="110" />
              <mxPoint x="180" y="140" />
            </Array>
          </mxGeometry>
        </mxCell>
        <mxCell id="eHQjN0FKdP73UgatA0XD-8" value="&lt;b&gt;&lt;font style=&quot;font-size: 16px;&quot;&gt;T&lt;/font&gt;&lt;/b&gt;" style="rounded=0;whiteSpace=wrap;html=1;" parent="1" vertex="1">
          <mxGeometry x="260" y="140" width="40" height="40" as="geometry" />
        </mxCell>
        <mxCell id="eHQjN0FKdP73UgatA0XD-9" style="edgeStyle=orthogonalEdgeStyle;rounded=0;orthogonalLoop=1;jettySize=auto;html=1;exitX=0.5;exitY=0;exitDx=0;exitDy=0;entryX=0;entryY=0.5;entryDx=0;entryDy=0;fontFamily=Lucida Console;fontSize=12;endArrow=blockThin;endFill=1;" parent="1" source="eHQjN0FKdP73UgatA0XD-10" target="eHQjN0FKdP73UgatA0XD-8" edge="1">
          <mxGeometry relative="1" as="geometry" />
        </mxCell>
        <mxCell id="eHQjN0FKdP73UgatA0XD-10" value="&lt;font style=&quot;font-size: 12px;&quot;&gt;0&lt;br&gt;&lt;br&gt;1&lt;/font&gt;" style="shape=trapezoid;perimeter=trapezoidPerimeter;whiteSpace=wrap;html=1;fixedSize=1;fontFamily=Lucida Console;fontSize=16;direction=south;size=10;" parent="1" vertex="1">
          <mxGeometry x="200" y="120" width="30" height="80" as="geometry" />
        </mxCell>
        <mxCell id="eHQjN0FKdP73UgatA0XD-11" value="&lt;span style=&quot;font-family: &amp;quot;Lucida Console&amp;quot;;&quot;&gt;m_valid&lt;/span&gt;" style="text;html=1;strokeColor=none;fillColor=none;align=left;verticalAlign=middle;whiteSpace=wrap;rounded=0;" parent="1" vertex="1">
          <mxGeometry x="680" y="180" width="80" height="20" as="geometry" />
        </mxCell>
        <mxCell id="eHQjN0FKdP73UgatA0XD-12" value="&lt;font color=&quot;#007fff&quot; style=&quot;font-size: 10px;&quot; face=&quot;Lucida Console&quot;&gt;skd_vlaid&lt;/font&gt;" style="text;html=1;strokeColor=none;fillColor=none;align=center;verticalAlign=middle;whiteSpace=wrap;rounded=0;" parent="1" vertex="1">
          <mxGeometry x="240" y="90" width="70" height="20" as="geometry" />
        </mxCell>
        <mxCell id="eHQjN0FKdP73UgatA0XD-13" value="&lt;font face=&quot;Lucida Console&quot; color=&quot;#007fff&quot;&gt;&lt;span style=&quot;font-size: 10px;&quot;&gt;out_valid&lt;/span&gt;&lt;/font&gt;" style="text;html=1;strokeColor=none;fillColor=none;align=center;verticalAlign=middle;whiteSpace=wrap;rounded=0;" parent="1" vertex="1">
          <mxGeometry x="395" y="170" width="60" height="20" as="geometry" />
        </mxCell>
        <mxCell id="eHQjN0FKdP73UgatA0XD-14" value="" style="endArrow=blockThin;html=1;rounded=0;endFill=1;entryX=0.75;entryY=1;entryDx=0;entryDy=0;startArrow=oval;startFill=1;startSize=4;" parent="1" target="eHQjN0FKdP73UgatA0XD-10" edge="1">
          <mxGeometry width="50" height="50" relative="1" as="geometry">
            <mxPoint x="180" y="210" as="sourcePoint" />
            <mxPoint x="150" y="160" as="targetPoint" />
            <Array as="points">
              <mxPoint x="180" y="180" />
            </Array>
          </mxGeometry>
        </mxCell>
        <mxCell id="eHQjN0FKdP73UgatA0XD-15" value="" style="endArrow=blockThin;html=1;rounded=0;endFill=1;entryX=0.25;entryY=1;entryDx=0;entryDy=0;startArrow=oval;startFill=1;startSize=4;" parent="1" target="eHQjN0FKdP73UgatA0XD-6" edge="1">
          <mxGeometry width="50" height="50" relative="1" as="geometry">
            <mxPoint x="310" y="160" as="sourcePoint" />
            <mxPoint x="210" y="190" as="targetPoint" />
            <Array as="points">
              <mxPoint x="310" y="170" />
            </Array>
          </mxGeometry>
        </mxCell>
        <mxCell id="eHQjN0FKdP73UgatA0XD-16" value="" style="endArrow=blockThin;html=1;rounded=0;endFill=1;entryX=1;entryY=0.5;entryDx=0;entryDy=0;startArrow=none;startFill=0;startSize=4;exitX=0;exitY=0.5;exitDx=0;exitDy=0;" parent="1" source="LQBBKpXPM4I-AXH5A9s--78" target="LQBBKpXPM4I-AXH5A9s--76" edge="1">
          <mxGeometry width="50" height="50" relative="1" as="geometry">
            <mxPoint x="625" y="390" as="sourcePoint" />
            <mxPoint x="245" y="340" as="targetPoint" />
            <Array as="points" />
          </mxGeometry>
        </mxCell>
        <mxCell id="eHQjN0FKdP73UgatA0XD-29" value="&lt;span style=&quot;font-family: &amp;quot;Lucida Console&amp;quot;;&quot;&gt;m_data&lt;/span&gt;" style="text;html=1;strokeColor=none;fillColor=none;align=left;verticalAlign=middle;whiteSpace=wrap;rounded=0;" parent="1" vertex="1">
          <mxGeometry x="680" y="720" width="80" height="20" as="geometry" />
        </mxCell>
        <mxCell id="eHQjN0FKdP73UgatA0XD-32" value="&lt;font color=&quot;#007fff&quot; style=&quot;font-size: 10px;&quot; face=&quot;Lucida Console&quot;&gt;out_data&lt;/font&gt;" style="text;html=1;strokeColor=none;fillColor=none;align=center;verticalAlign=middle;whiteSpace=wrap;rounded=0;" parent="1" vertex="1">
          <mxGeometry x="370" y="730" width="60" height="20" as="geometry" />
        </mxCell>
        <mxCell id="eHQjN0FKdP73UgatA0XD-43" value="&lt;span style=&quot;font-family: &amp;quot;Lucida Console&amp;quot;;&quot;&gt;m_valid&lt;/span&gt;" style="text;html=1;strokeColor=none;fillColor=none;align=left;verticalAlign=middle;whiteSpace=wrap;rounded=0;" parent="1" vertex="1">
          <mxGeometry x="680" y="590" width="80" height="20" as="geometry" />
        </mxCell>
        <mxCell id="eHQjN0FKdP73UgatA0XD-45" value="&lt;font face=&quot;Lucida Console&quot; color=&quot;#007fff&quot;&gt;&lt;span style=&quot;font-size: 10px;&quot;&gt;out_valid&lt;/span&gt;&lt;/font&gt;" style="text;html=1;strokeColor=none;fillColor=none;align=center;verticalAlign=middle;whiteSpace=wrap;rounded=0;" parent="1" vertex="1">
          <mxGeometry x="370" y="600" width="60" height="20" as="geometry" />
        </mxCell>
        <mxCell id="eHQjN0FKdP73UgatA0XD-49" value="&lt;font style=&quot;font-size: 12px;&quot;&gt;0&lt;br&gt;&lt;br&gt;1&lt;/font&gt;" style="shape=trapezoid;perimeter=trapezoidPerimeter;whiteSpace=wrap;html=1;fixedSize=1;fontFamily=Lucida Console;fontSize=16;direction=south;size=10;" parent="1" vertex="1">
          <mxGeometry x="540" y="560" width="30" height="80" as="geometry" />
        </mxCell>
        <mxCell id="eHQjN0FKdP73UgatA0XD-50" value="&lt;b&gt;&lt;font style=&quot;font-size: 16px;&quot;&gt;T&lt;/font&gt;&lt;/b&gt;" style="rounded=0;whiteSpace=wrap;html=1;" parent="1" vertex="1">
          <mxGeometry x="600" y="580" width="40" height="40" as="geometry" />
        </mxCell>
        <mxCell id="eHQjN0FKdP73UgatA0XD-52" value="" style="endArrow=blockThin;html=1;rounded=0;endFill=1;entryX=0;entryY=0.5;entryDx=0;entryDy=0;startArrow=none;startFill=0;startSize=4;exitX=0.5;exitY=0;exitDx=0;exitDy=0;" parent="1" source="eHQjN0FKdP73UgatA0XD-49" target="eHQjN0FKdP73UgatA0XD-50" edge="1">
          <mxGeometry width="50" height="50" relative="1" as="geometry">
            <mxPoint x="680" y="410" as="sourcePoint" />
            <mxPoint x="540" y="410" as="targetPoint" />
            <Array as="points" />
          </mxGeometry>
        </mxCell>
        <mxCell id="eHQjN0FKdP73UgatA0XD-53" value="" style="endArrow=blockThin;html=1;rounded=0;endFill=1;entryX=0.75;entryY=1;entryDx=0;entryDy=0;startArrow=none;startFill=0;startSize=4;exitX=0.5;exitY=0;exitDx=0;exitDy=0;" parent="1" target="eHQjN0FKdP73UgatA0XD-49" edge="1">
          <mxGeometry width="50" height="50" relative="1" as="geometry">
            <mxPoint x="360" y="620" as="sourcePoint" />
            <mxPoint x="530" y="630" as="targetPoint" />
            <Array as="points" />
          </mxGeometry>
        </mxCell>
        <mxCell id="eHQjN0FKdP73UgatA0XD-54" value="" style="endArrow=blockThin;html=1;rounded=0;endFill=1;entryX=0;entryY=0.5;entryDx=0;entryDy=0;startArrow=none;startFill=0;startSize=4;exitX=1;exitY=0.5;exitDx=0;exitDy=0;" parent="1" source="eHQjN0FKdP73UgatA0XD-50" target="eHQjN0FKdP73UgatA0XD-43" edge="1">
          <mxGeometry width="50" height="50" relative="1" as="geometry">
            <mxPoint x="600" y="640" as="sourcePoint" />
            <mxPoint x="620" y="640" as="targetPoint" />
            <Array as="points" />
          </mxGeometry>
        </mxCell>
        <mxCell id="eHQjN0FKdP73UgatA0XD-55" value="" style="endArrow=blockThin;html=1;rounded=0;endFill=1;entryX=0.25;entryY=1;entryDx=0;entryDy=0;startArrow=oval;startFill=1;startSize=4;" parent="1" target="eHQjN0FKdP73UgatA0XD-49" edge="1">
          <mxGeometry width="50" height="50" relative="1" as="geometry">
            <mxPoint x="650" y="600" as="sourcePoint" />
            <mxPoint x="280" y="620" as="targetPoint" />
            <Array as="points">
              <mxPoint x="650" y="550" />
              <mxPoint x="520" y="550" />
              <mxPoint x="520" y="580" />
            </Array>
          </mxGeometry>
        </mxCell>
        <mxCell id="eHQjN0FKdP73UgatA0XD-57" value="&lt;font style=&quot;font-size: 12px;&quot;&gt;0&lt;br&gt;&lt;br&gt;1&lt;/font&gt;" style="shape=trapezoid;perimeter=trapezoidPerimeter;whiteSpace=wrap;html=1;fixedSize=1;fontFamily=Lucida Console;fontSize=16;direction=south;size=10;" parent="1" vertex="1">
          <mxGeometry x="540" y="690" width="30" height="80" as="geometry" />
        </mxCell>
        <mxCell id="eHQjN0FKdP73UgatA0XD-58" value="&lt;b&gt;&lt;font style=&quot;font-size: 16px;&quot;&gt;T&lt;/font&gt;&lt;/b&gt;" style="rounded=0;whiteSpace=wrap;html=1;" parent="1" vertex="1">
          <mxGeometry x="600" y="710" width="40" height="40" as="geometry" />
        </mxCell>
        <mxCell id="eHQjN0FKdP73UgatA0XD-59" value="" style="endArrow=blockThin;html=1;rounded=0;endFill=1;entryX=0;entryY=0.5;entryDx=0;entryDy=0;startArrow=none;startFill=0;startSize=4;exitX=0.5;exitY=0;exitDx=0;exitDy=0;" parent="1" source="eHQjN0FKdP73UgatA0XD-57" target="eHQjN0FKdP73UgatA0XD-58" edge="1">
          <mxGeometry width="50" height="50" relative="1" as="geometry">
            <mxPoint x="680" y="540" as="sourcePoint" />
            <mxPoint x="540" y="540" as="targetPoint" />
            <Array as="points" />
          </mxGeometry>
        </mxCell>
        <mxCell id="eHQjN0FKdP73UgatA0XD-60" value="" style="endArrow=blockThin;html=1;rounded=0;endFill=1;entryX=0.75;entryY=1;entryDx=0;entryDy=0;startArrow=none;startFill=0;startSize=4;" parent="1" target="eHQjN0FKdP73UgatA0XD-57" edge="1">
          <mxGeometry width="50" height="50" relative="1" as="geometry">
            <mxPoint x="360" y="750" as="sourcePoint" />
            <mxPoint x="530" y="760" as="targetPoint" />
            <Array as="points" />
          </mxGeometry>
        </mxCell>
        <mxCell id="eHQjN0FKdP73UgatA0XD-61" value="" style="endArrow=blockThin;html=1;rounded=0;endFill=1;entryX=0;entryY=0.5;entryDx=0;entryDy=0;startArrow=none;startFill=0;startSize=4;exitX=1;exitY=0.5;exitDx=0;exitDy=0;" parent="1" source="eHQjN0FKdP73UgatA0XD-58" edge="1">
          <mxGeometry width="50" height="50" relative="1" as="geometry">
            <mxPoint x="600" y="770" as="sourcePoint" />
            <mxPoint x="680" y="730" as="targetPoint" />
            <Array as="points" />
          </mxGeometry>
        </mxCell>
        <mxCell id="eHQjN0FKdP73UgatA0XD-62" value="" style="endArrow=blockThin;html=1;rounded=0;endFill=1;entryX=0.25;entryY=1;entryDx=0;entryDy=0;startArrow=oval;startFill=1;startSize=4;" parent="1" target="eHQjN0FKdP73UgatA0XD-57" edge="1">
          <mxGeometry width="50" height="50" relative="1" as="geometry">
            <mxPoint x="650" y="730" as="sourcePoint" />
            <mxPoint x="280" y="750" as="targetPoint" />
            <Array as="points">
              <mxPoint x="650" y="680" />
              <mxPoint x="520" y="680" />
              <mxPoint x="520" y="710" />
            </Array>
          </mxGeometry>
        </mxCell>
        <mxCell id="eHQjN0FKdP73UgatA0XD-63" value="" style="endArrow=blockThin;html=1;rounded=0;endFill=1;entryX=1;entryY=0.5;entryDx=0;entryDy=0;startArrow=oval;startFill=1;startSize=4;" parent="1" target="LQBBKpXPM4I-AXH5A9s--85" edge="1">
          <mxGeometry width="50" height="50" relative="1" as="geometry">
            <mxPoint x="240" y="390" as="sourcePoint" />
            <mxPoint x="210" y="320" as="targetPoint" />
            <Array as="points">
              <mxPoint x="240" y="350" />
              <mxPoint x="220" y="350" />
            </Array>
          </mxGeometry>
        </mxCell>
        <mxCell id="eHQjN0FKdP73UgatA0XD-71" value="" style="endArrow=blockThin;html=1;rounded=0;endFill=1;entryX=1;entryY=0.5;entryDx=0;entryDy=0;startArrow=oval;startFill=1;startSize=4;" parent="1" target="eHQjN0FKdP73UgatA0XD-10" edge="1">
          <mxGeometry width="50" height="50" relative="1" as="geometry">
            <mxPoint x="240" y="350" as="sourcePoint" />
            <mxPoint x="215" y="202.5" as="targetPoint" />
            <Array as="points">
              <mxPoint x="240" y="220" />
              <mxPoint x="220" y="220" />
            </Array>
          </mxGeometry>
        </mxCell>
        <mxCell id="eHQjN0FKdP73UgatA0XD-72" value="" style="endArrow=blockThin;html=1;rounded=0;endFill=1;entryX=1;entryY=0.5;entryDx=0;entryDy=0;startArrow=oval;startFill=1;startSize=4;" parent="1" target="LQBBKpXPM4I-AXH5A9s--80" edge="1">
          <mxGeometry width="50" height="50" relative="1" as="geometry">
            <mxPoint x="370" y="390" as="sourcePoint" />
            <mxPoint x="345" y="325" as="targetPoint" />
            <Array as="points">
              <mxPoint x="370" y="370" />
              <mxPoint x="350" y="370" />
            </Array>
          </mxGeometry>
        </mxCell>
        <mxCell id="eHQjN0FKdP73UgatA0XD-73" value="" style="endArrow=blockThin;html=1;rounded=0;endFill=1;entryX=1;entryY=0.5;entryDx=0;entryDy=0;startArrow=oval;startFill=1;startSize=4;" parent="1" target="eHQjN0FKdP73UgatA0XD-6" edge="1">
          <mxGeometry width="50" height="50" relative="1" as="geometry">
            <mxPoint x="370" y="370" as="sourcePoint" />
            <mxPoint x="345" y="215" as="targetPoint" />
            <Array as="points">
              <mxPoint x="370" y="240" />
              <mxPoint x="350" y="240" />
            </Array>
          </mxGeometry>
        </mxCell>
        <mxCell id="eHQjN0FKdP73UgatA0XD-75" style="edgeStyle=orthogonalEdgeStyle;rounded=0;orthogonalLoop=1;jettySize=auto;html=1;exitX=1;exitY=0.5;exitDx=0;exitDy=0;entryX=0.75;entryY=1;entryDx=0;entryDy=0;fontFamily=Lucida Console;fontSize=12;endArrow=blockThin;endFill=1;" parent="1" source="eHQjN0FKdP73UgatA0XD-76" target="eHQjN0FKdP73UgatA0XD-82" edge="1">
          <mxGeometry relative="1" as="geometry">
            <mxPoint x="190" y="770" as="targetPoint" />
          </mxGeometry>
        </mxCell>
        <mxCell id="eHQjN0FKdP73UgatA0XD-76" value="&lt;span style=&quot;font-family: &amp;quot;Lucida Console&amp;quot;;&quot;&gt;s_data&lt;/span&gt;" style="text;html=1;strokeColor=none;fillColor=none;align=right;verticalAlign=middle;whiteSpace=wrap;rounded=0;" parent="1" vertex="1">
          <mxGeometry x="80" y="760" width="70" height="20" as="geometry" />
        </mxCell>
        <mxCell id="eHQjN0FKdP73UgatA0XD-77" style="edgeStyle=orthogonalEdgeStyle;rounded=0;orthogonalLoop=1;jettySize=auto;html=1;exitX=0;exitY=0.5;exitDx=0;exitDy=0;entryX=1;entryY=0.5;entryDx=0;entryDy=0;fontFamily=Lucida Console;fontSize=12;endArrow=blockThin;endFill=1;" parent="1" source="eHQjN0FKdP73UgatA0XD-78" target="eHQjN0FKdP73UgatA0XD-80" edge="1">
          <mxGeometry relative="1" as="geometry" />
        </mxCell>
        <mxCell id="eHQjN0FKdP73UgatA0XD-78" value="&lt;b&gt;&lt;font style=&quot;font-size: 16px;&quot;&gt;T&lt;/font&gt;&lt;/b&gt;" style="rounded=0;whiteSpace=wrap;html=1;" parent="1" vertex="1">
          <mxGeometry x="445" y="800" width="40" height="40" as="geometry" />
        </mxCell>
        <mxCell id="eHQjN0FKdP73UgatA0XD-79" value="&lt;span style=&quot;font-family: &amp;quot;Lucida Console&amp;quot;;&quot;&gt;m_ready&lt;/span&gt;" style="text;html=1;strokeColor=none;fillColor=none;align=left;verticalAlign=middle;whiteSpace=wrap;rounded=0;" parent="1" vertex="1">
          <mxGeometry x="675" y="810" width="80" height="20" as="geometry" />
        </mxCell>
        <mxCell id="eHQjN0FKdP73UgatA0XD-80" value="&lt;span style=&quot;font-family: &amp;quot;Lucida Console&amp;quot;;&quot;&gt;s_ready&lt;/span&gt;" style="text;html=1;strokeColor=none;fillColor=none;align=right;verticalAlign=middle;whiteSpace=wrap;rounded=0;" parent="1" vertex="1">
          <mxGeometry x="80" y="810" width="70" height="20" as="geometry" />
        </mxCell>
        <mxCell id="eHQjN0FKdP73UgatA0XD-82" value="&lt;font style=&quot;font-size: 12px;&quot;&gt;0&lt;br&gt;&lt;br&gt;1&lt;/font&gt;" style="shape=trapezoid;perimeter=trapezoidPerimeter;whiteSpace=wrap;html=1;fixedSize=1;fontFamily=Lucida Console;fontSize=16;direction=south;size=10;" parent="1" vertex="1">
          <mxGeometry x="330" y="710" width="30" height="80" as="geometry" />
        </mxCell>
        <mxCell id="eHQjN0FKdP73UgatA0XD-83" style="edgeStyle=orthogonalEdgeStyle;rounded=0;orthogonalLoop=1;jettySize=auto;html=1;exitX=1;exitY=0.5;exitDx=0;exitDy=0;entryX=0.25;entryY=1;entryDx=0;entryDy=0;fontFamily=Lucida Console;fontSize=12;endArrow=blockThin;endFill=1;" parent="1" source="eHQjN0FKdP73UgatA0XD-84" target="eHQjN0FKdP73UgatA0XD-86" edge="1">
          <mxGeometry relative="1" as="geometry">
            <Array as="points">
              <mxPoint x="310" y="720" />
              <mxPoint x="310" y="670" />
              <mxPoint x="180" y="670" />
              <mxPoint x="180" y="700" />
            </Array>
          </mxGeometry>
        </mxCell>
        <mxCell id="eHQjN0FKdP73UgatA0XD-84" value="&lt;b&gt;&lt;font style=&quot;font-size: 16px;&quot;&gt;T&lt;/font&gt;&lt;/b&gt;" style="rounded=0;whiteSpace=wrap;html=1;" parent="1" vertex="1">
          <mxGeometry x="260" y="700" width="40" height="40" as="geometry" />
        </mxCell>
        <mxCell id="eHQjN0FKdP73UgatA0XD-85" style="edgeStyle=orthogonalEdgeStyle;rounded=0;orthogonalLoop=1;jettySize=auto;html=1;exitX=0.5;exitY=0;exitDx=0;exitDy=0;entryX=0;entryY=0.5;entryDx=0;entryDy=0;fontFamily=Lucida Console;fontSize=12;endArrow=blockThin;endFill=1;" parent="1" source="eHQjN0FKdP73UgatA0XD-86" target="eHQjN0FKdP73UgatA0XD-84" edge="1">
          <mxGeometry relative="1" as="geometry" />
        </mxCell>
        <mxCell id="eHQjN0FKdP73UgatA0XD-86" value="&lt;font style=&quot;font-size: 12px;&quot;&gt;0&lt;br&gt;&lt;br&gt;1&lt;/font&gt;" style="shape=trapezoid;perimeter=trapezoidPerimeter;whiteSpace=wrap;html=1;fixedSize=1;fontFamily=Lucida Console;fontSize=16;direction=south;size=10;" parent="1" vertex="1">
          <mxGeometry x="200" y="680" width="30" height="80" as="geometry" />
        </mxCell>
        <mxCell id="eHQjN0FKdP73UgatA0XD-88" value="&lt;font color=&quot;#007fff&quot; style=&quot;font-size: 10px;&quot; face=&quot;Lucida Console&quot;&gt;skd_data&lt;/font&gt;" style="text;html=1;strokeColor=none;fillColor=none;align=center;verticalAlign=middle;whiteSpace=wrap;rounded=0;" parent="1" vertex="1">
          <mxGeometry x="240" y="650" width="70" height="20" as="geometry" />
        </mxCell>
        <mxCell id="eHQjN0FKdP73UgatA0XD-89" value="&lt;font color=&quot;#007fff&quot; style=&quot;font-size: 10px;&quot; face=&quot;Lucida Console&quot;&gt;reg_ready&lt;/font&gt;" style="text;html=1;strokeColor=none;fillColor=none;align=center;verticalAlign=middle;whiteSpace=wrap;rounded=0;" parent="1" vertex="1">
          <mxGeometry x="375" y="800" width="70" height="20" as="geometry" />
        </mxCell>
        <mxCell id="eHQjN0FKdP73UgatA0XD-91" value="" style="endArrow=blockThin;html=1;rounded=0;endFill=1;entryX=0.75;entryY=1;entryDx=0;entryDy=0;startArrow=oval;startFill=1;startSize=4;" parent="1" target="eHQjN0FKdP73UgatA0XD-86" edge="1">
          <mxGeometry width="50" height="50" relative="1" as="geometry">
            <mxPoint x="180" y="770" as="sourcePoint" />
            <mxPoint x="150" y="720" as="targetPoint" />
            <Array as="points">
              <mxPoint x="180" y="740" />
            </Array>
          </mxGeometry>
        </mxCell>
        <mxCell id="eHQjN0FKdP73UgatA0XD-92" value="" style="endArrow=blockThin;html=1;rounded=0;endFill=1;entryX=0.25;entryY=1;entryDx=0;entryDy=0;startArrow=oval;startFill=1;startSize=4;" parent="1" target="eHQjN0FKdP73UgatA0XD-82" edge="1">
          <mxGeometry width="50" height="50" relative="1" as="geometry">
            <mxPoint x="310" y="720" as="sourcePoint" />
            <mxPoint x="210" y="750" as="targetPoint" />
            <Array as="points">
              <mxPoint x="310" y="730" />
            </Array>
          </mxGeometry>
        </mxCell>
        <mxCell id="eHQjN0FKdP73UgatA0XD-93" style="edgeStyle=orthogonalEdgeStyle;rounded=0;orthogonalLoop=1;jettySize=auto;html=1;exitX=1;exitY=0.5;exitDx=0;exitDy=0;entryX=0.75;entryY=1;entryDx=0;entryDy=0;fontFamily=Lucida Console;fontSize=12;endArrow=blockThin;endFill=1;" parent="1" source="eHQjN0FKdP73UgatA0XD-94" target="eHQjN0FKdP73UgatA0XD-96" edge="1">
          <mxGeometry relative="1" as="geometry">
            <mxPoint x="190" y="640" as="targetPoint" />
          </mxGeometry>
        </mxCell>
        <mxCell id="eHQjN0FKdP73UgatA0XD-94" value="&lt;span style=&quot;font-family: &amp;quot;Lucida Console&amp;quot;;&quot;&gt;s_valid&lt;/span&gt;" style="text;html=1;strokeColor=none;fillColor=none;align=right;verticalAlign=middle;whiteSpace=wrap;rounded=0;" parent="1" vertex="1">
          <mxGeometry x="80" y="630" width="70" height="20" as="geometry" />
        </mxCell>
        <mxCell id="eHQjN0FKdP73UgatA0XD-96" value="&lt;font style=&quot;font-size: 12px;&quot;&gt;0&lt;br&gt;&lt;br&gt;1&lt;/font&gt;" style="shape=trapezoid;perimeter=trapezoidPerimeter;whiteSpace=wrap;html=1;fixedSize=1;fontFamily=Lucida Console;fontSize=16;direction=south;size=10;" parent="1" vertex="1">
          <mxGeometry x="330" y="580" width="30" height="80" as="geometry" />
        </mxCell>
        <mxCell id="eHQjN0FKdP73UgatA0XD-97" style="edgeStyle=orthogonalEdgeStyle;rounded=0;orthogonalLoop=1;jettySize=auto;html=1;exitX=1;exitY=0.5;exitDx=0;exitDy=0;entryX=0.25;entryY=1;entryDx=0;entryDy=0;fontFamily=Lucida Console;fontSize=12;endArrow=blockThin;endFill=1;" parent="1" source="eHQjN0FKdP73UgatA0XD-98" target="eHQjN0FKdP73UgatA0XD-100" edge="1">
          <mxGeometry relative="1" as="geometry">
            <Array as="points">
              <mxPoint x="310" y="590" />
              <mxPoint x="310" y="540" />
              <mxPoint x="180" y="540" />
              <mxPoint x="180" y="570" />
            </Array>
          </mxGeometry>
        </mxCell>
        <mxCell id="eHQjN0FKdP73UgatA0XD-98" value="&lt;b&gt;&lt;font style=&quot;font-size: 16px;&quot;&gt;T&lt;/font&gt;&lt;/b&gt;" style="rounded=0;whiteSpace=wrap;html=1;" parent="1" vertex="1">
          <mxGeometry x="260" y="570" width="40" height="40" as="geometry" />
        </mxCell>
        <mxCell id="eHQjN0FKdP73UgatA0XD-99" style="edgeStyle=orthogonalEdgeStyle;rounded=0;orthogonalLoop=1;jettySize=auto;html=1;exitX=0.5;exitY=0;exitDx=0;exitDy=0;entryX=0;entryY=0.5;entryDx=0;entryDy=0;fontFamily=Lucida Console;fontSize=12;endArrow=blockThin;endFill=1;" parent="1" source="eHQjN0FKdP73UgatA0XD-100" target="eHQjN0FKdP73UgatA0XD-98" edge="1">
          <mxGeometry relative="1" as="geometry" />
        </mxCell>
        <mxCell id="eHQjN0FKdP73UgatA0XD-100" value="&lt;font style=&quot;font-size: 12px;&quot;&gt;0&lt;br&gt;&lt;br&gt;1&lt;/font&gt;" style="shape=trapezoid;perimeter=trapezoidPerimeter;whiteSpace=wrap;html=1;fixedSize=1;fontFamily=Lucida Console;fontSize=16;direction=south;size=10;" parent="1" vertex="1">
          <mxGeometry x="200" y="550" width="30" height="80" as="geometry" />
        </mxCell>
        <mxCell id="eHQjN0FKdP73UgatA0XD-102" value="&lt;font color=&quot;#007fff&quot; style=&quot;font-size: 10px;&quot; face=&quot;Lucida Console&quot;&gt;skd_vlaid&lt;/font&gt;" style="text;html=1;strokeColor=none;fillColor=none;align=center;verticalAlign=middle;whiteSpace=wrap;rounded=0;" parent="1" vertex="1">
          <mxGeometry x="240" y="520" width="70" height="20" as="geometry" />
        </mxCell>
        <mxCell id="eHQjN0FKdP73UgatA0XD-104" value="" style="endArrow=blockThin;html=1;rounded=0;endFill=1;entryX=0.75;entryY=1;entryDx=0;entryDy=0;startArrow=oval;startFill=1;startSize=4;" parent="1" target="eHQjN0FKdP73UgatA0XD-100" edge="1">
          <mxGeometry width="50" height="50" relative="1" as="geometry">
            <mxPoint x="180" y="640" as="sourcePoint" />
            <mxPoint x="150" y="590" as="targetPoint" />
            <Array as="points">
              <mxPoint x="180" y="610" />
            </Array>
          </mxGeometry>
        </mxCell>
        <mxCell id="eHQjN0FKdP73UgatA0XD-105" value="" style="endArrow=blockThin;html=1;rounded=0;endFill=1;entryX=0.25;entryY=1;entryDx=0;entryDy=0;startArrow=oval;startFill=1;startSize=4;" parent="1" target="eHQjN0FKdP73UgatA0XD-96" edge="1">
          <mxGeometry width="50" height="50" relative="1" as="geometry">
            <mxPoint x="310" y="590" as="sourcePoint" />
            <mxPoint x="210" y="620" as="targetPoint" />
            <Array as="points">
              <mxPoint x="310" y="600" />
            </Array>
          </mxGeometry>
        </mxCell>
        <mxCell id="eHQjN0FKdP73UgatA0XD-106" value="" style="endArrow=blockThin;html=1;rounded=0;endFill=1;entryX=1;entryY=0.5;entryDx=0;entryDy=0;startArrow=none;startFill=0;startSize=4;exitX=0;exitY=0.5;exitDx=0;exitDy=0;" parent="1" target="eHQjN0FKdP73UgatA0XD-78" edge="1">
          <mxGeometry width="50" height="50" relative="1" as="geometry">
            <mxPoint x="675" y="820" as="sourcePoint" />
            <mxPoint x="535" y="820" as="targetPoint" />
            <Array as="points" />
          </mxGeometry>
        </mxCell>
        <mxCell id="eHQjN0FKdP73UgatA0XD-107" value="" style="endArrow=blockThin;html=1;rounded=0;endFill=1;entryX=1;entryY=0.5;entryDx=0;entryDy=0;startArrow=oval;startFill=1;startSize=4;" parent="1" target="eHQjN0FKdP73UgatA0XD-86" edge="1">
          <mxGeometry width="50" height="50" relative="1" as="geometry">
            <mxPoint x="240" y="820" as="sourcePoint" />
            <mxPoint x="210" y="750" as="targetPoint" />
            <Array as="points">
              <mxPoint x="240" y="780" />
              <mxPoint x="220" y="780" />
            </Array>
          </mxGeometry>
        </mxCell>
        <mxCell id="eHQjN0FKdP73UgatA0XD-108" value="" style="endArrow=blockThin;html=1;rounded=0;endFill=1;entryX=1;entryY=0.5;entryDx=0;entryDy=0;startArrow=oval;startFill=1;startSize=4;" parent="1" target="eHQjN0FKdP73UgatA0XD-100" edge="1">
          <mxGeometry width="50" height="50" relative="1" as="geometry">
            <mxPoint x="240" y="780" as="sourcePoint" />
            <mxPoint x="215" y="632.5" as="targetPoint" />
            <Array as="points">
              <mxPoint x="240" y="650" />
              <mxPoint x="220" y="650" />
            </Array>
          </mxGeometry>
        </mxCell>
        <mxCell id="eHQjN0FKdP73UgatA0XD-109" value="" style="endArrow=blockThin;html=1;rounded=0;endFill=1;entryX=1;entryY=0.5;entryDx=0;entryDy=0;startArrow=oval;startFill=1;startSize=4;" parent="1" target="eHQjN0FKdP73UgatA0XD-82" edge="1">
          <mxGeometry width="50" height="50" relative="1" as="geometry">
            <mxPoint x="370" y="820" as="sourcePoint" />
            <mxPoint x="345" y="755" as="targetPoint" />
            <Array as="points">
              <mxPoint x="370" y="800" />
              <mxPoint x="350" y="800" />
            </Array>
          </mxGeometry>
        </mxCell>
        <mxCell id="eHQjN0FKdP73UgatA0XD-110" value="" style="endArrow=blockThin;html=1;rounded=0;endFill=1;entryX=1;entryY=0.5;entryDx=0;entryDy=0;startArrow=oval;startFill=1;startSize=4;" parent="1" target="eHQjN0FKdP73UgatA0XD-96" edge="1">
          <mxGeometry width="50" height="50" relative="1" as="geometry">
            <mxPoint x="370" y="800" as="sourcePoint" />
            <mxPoint x="345" y="645" as="targetPoint" />
            <Array as="points">
              <mxPoint x="370" y="670" />
              <mxPoint x="350" y="670" />
            </Array>
          </mxGeometry>
        </mxCell>
        <mxCell id="eHQjN0FKdP73UgatA0XD-111" value="" style="endArrow=blockThin;html=1;rounded=0;endFill=1;entryX=1;entryY=0.5;entryDx=0;entryDy=0;startArrow=oval;startFill=1;startSize=4;" parent="1" target="eHQjN0FKdP73UgatA0XD-57" edge="1">
          <mxGeometry width="50" height="50" relative="1" as="geometry">
            <mxPoint x="580" y="820" as="sourcePoint" />
            <mxPoint x="560" y="785" as="targetPoint" />
            <Array as="points">
              <mxPoint x="580" y="790" />
              <mxPoint x="565" y="790" />
            </Array>
          </mxGeometry>
        </mxCell>
        <mxCell id="eHQjN0FKdP73UgatA0XD-112" value="" style="endArrow=blockThin;html=1;rounded=0;endFill=1;entryX=1;entryY=0.5;entryDx=0;entryDy=0;startArrow=oval;startFill=1;startSize=4;" parent="1" target="eHQjN0FKdP73UgatA0XD-49" edge="1">
          <mxGeometry width="50" height="50" relative="1" as="geometry">
            <mxPoint x="580" y="790" as="sourcePoint" />
            <mxPoint x="560" y="635" as="targetPoint" />
            <Array as="points">
              <mxPoint x="580" y="660" />
              <mxPoint x="560" y="660" />
            </Array>
          </mxGeometry>
        </mxCell>
        <mxCell id="eHQjN0FKdP73UgatA0XD-114" value="&lt;font color=&quot;#666666&quot; face=&quot;Lucida Console&quot;&gt;&lt;span style=&quot;font-size: 10px;&quot;&gt;OPT_DATA_REG&lt;/span&gt;&lt;/font&gt;" style="text;html=1;strokeColor=none;fillColor=none;align=center;verticalAlign=middle;whiteSpace=wrap;rounded=0;" parent="1" vertex="1">
          <mxGeometry x="505" y="510" width="155" height="20" as="geometry" />
        </mxCell>
        <mxCell id="mNyXQL3J6JATXxlFn9zI-1" value="&lt;font style=&quot;font-size: 18px;&quot;&gt;passthrough skidbuffer&lt;/font&gt;" style="text;html=1;strokeColor=none;fillColor=none;align=left;verticalAlign=middle;whiteSpace=wrap;rounded=0;" parent="1" vertex="1">
          <mxGeometry x="80" y="60" width="260" height="20" as="geometry" />
        </mxCell>
      </root>
    </mxGraphModel>
  </diagram>
  <diagram id="N1nrfIrKZcbMAJCpKy8k" name="Page-2">
    <mxGraphModel dx="1996" dy="1228" grid="1" gridSize="10" guides="1" tooltips="1" connect="1" arrows="1" fold="1" page="1" pageScale="1" pageWidth="827" pageHeight="1169" math="0" shadow="0">
      <root>
        <mxCell id="0" />
        <mxCell id="1" parent="0" />
        <mxCell id="KeehZXuGtCyTHZF6xTJI-3" style="edgeStyle=orthogonalEdgeStyle;rounded=0;orthogonalLoop=1;jettySize=auto;html=1;exitX=0;exitY=0.5;exitDx=0;exitDy=0;entryX=1;entryY=0.5;entryDx=0;entryDy=0;fontFamily=Lucida Console;fontSize=12;endArrow=blockThin;endFill=1;" parent="1" source="KeehZXuGtCyTHZF6xTJI-4" target="KeehZXuGtCyTHZF6xTJI-6" edge="1">
          <mxGeometry relative="1" as="geometry" />
        </mxCell>
        <mxCell id="KeehZXuGtCyTHZF6xTJI-4" value="&lt;b&gt;&lt;font style=&quot;font-size: 16px;&quot;&gt;T&lt;/font&gt;&lt;/b&gt;" style="rounded=0;whiteSpace=wrap;html=1;" parent="1" vertex="1">
          <mxGeometry x="270" y="770" width="40" height="40" as="geometry" />
        </mxCell>
        <mxCell id="KeehZXuGtCyTHZF6xTJI-5" value="&lt;span style=&quot;font-family: &amp;quot;Lucida Console&amp;quot;;&quot;&gt;m_ready&lt;/span&gt;" style="text;html=1;strokeColor=none;fillColor=none;align=left;verticalAlign=middle;whiteSpace=wrap;rounded=0;" parent="1" vertex="1">
          <mxGeometry x="680" y="780" width="80" height="20" as="geometry" />
        </mxCell>
        <mxCell id="KeehZXuGtCyTHZF6xTJI-6" value="&lt;span style=&quot;font-family: &amp;quot;Lucida Console&amp;quot;;&quot;&gt;s_ready&lt;/span&gt;" style="text;html=1;strokeColor=none;fillColor=none;align=right;verticalAlign=middle;whiteSpace=wrap;rounded=0;" parent="1" vertex="1">
          <mxGeometry x="80" y="780" width="70" height="20" as="geometry" />
        </mxCell>
        <mxCell id="KeehZXuGtCyTHZF6xTJI-14" value="&lt;font color=&quot;#007fff&quot; style=&quot;font-size: 10px;&quot; face=&quot;Lucida Console&quot;&gt;skd_data&lt;/font&gt;" style="text;html=1;strokeColor=none;fillColor=none;align=center;verticalAlign=middle;whiteSpace=wrap;rounded=0;" parent="1" vertex="1">
          <mxGeometry x="240" y="220" width="70" height="20" as="geometry" />
        </mxCell>
        <mxCell id="KeehZXuGtCyTHZF6xTJI-19" style="edgeStyle=orthogonalEdgeStyle;rounded=0;orthogonalLoop=1;jettySize=auto;html=1;exitX=1;exitY=0.5;exitDx=0;exitDy=0;entryX=0.75;entryY=1;entryDx=0;entryDy=0;fontFamily=Lucida Console;fontSize=12;endArrow=blockThin;endFill=1;" parent="1" source="KeehZXuGtCyTHZF6xTJI-20" target="KeehZXuGtCyTHZF6xTJI-22" edge="1">
          <mxGeometry relative="1" as="geometry">
            <mxPoint x="190" y="210" as="targetPoint" />
          </mxGeometry>
        </mxCell>
        <mxCell id="KeehZXuGtCyTHZF6xTJI-20" value="&lt;span style=&quot;font-family: &amp;quot;Lucida Console&amp;quot;;&quot;&gt;s_valid&lt;/span&gt;" style="text;html=1;strokeColor=none;fillColor=none;align=right;verticalAlign=middle;whiteSpace=wrap;rounded=0;" parent="1" vertex="1">
          <mxGeometry x="80" y="200" width="70" height="20" as="geometry" />
        </mxCell>
        <mxCell id="KeehZXuGtCyTHZF6xTJI-21" style="edgeStyle=orthogonalEdgeStyle;rounded=0;orthogonalLoop=1;jettySize=auto;html=1;exitX=0.5;exitY=0;exitDx=0;exitDy=0;entryX=0;entryY=0.5;entryDx=0;entryDy=0;fontFamily=Lucida Console;fontSize=12;endArrow=blockThin;endFill=1;" parent="1" source="KeehZXuGtCyTHZF6xTJI-22" target="KeehZXuGtCyTHZF6xTJI-27" edge="1">
          <mxGeometry relative="1" as="geometry" />
        </mxCell>
        <mxCell id="KeehZXuGtCyTHZF6xTJI-22" value="&lt;font style=&quot;font-size: 12px;&quot;&gt;0&lt;br&gt;&lt;br&gt;1&lt;/font&gt;" style="shape=trapezoid;perimeter=trapezoidPerimeter;whiteSpace=wrap;html=1;fixedSize=1;fontFamily=Lucida Console;fontSize=16;direction=south;size=10;" parent="1" vertex="1">
          <mxGeometry x="330" y="150" width="30" height="80" as="geometry" />
        </mxCell>
        <mxCell id="KeehZXuGtCyTHZF6xTJI-23" style="edgeStyle=orthogonalEdgeStyle;rounded=0;orthogonalLoop=1;jettySize=auto;html=1;exitX=1;exitY=0.5;exitDx=0;exitDy=0;entryX=0.25;entryY=1;entryDx=0;entryDy=0;fontFamily=Lucida Console;fontSize=12;endArrow=blockThin;endFill=1;" parent="1" source="KeehZXuGtCyTHZF6xTJI-24" target="KeehZXuGtCyTHZF6xTJI-26" edge="1">
          <mxGeometry relative="1" as="geometry">
            <Array as="points">
              <mxPoint x="310" y="160" />
              <mxPoint x="310" y="110" />
              <mxPoint x="180" y="110" />
              <mxPoint x="180" y="140" />
            </Array>
          </mxGeometry>
        </mxCell>
        <mxCell id="KeehZXuGtCyTHZF6xTJI-24" value="&lt;b&gt;&lt;font style=&quot;font-size: 16px;&quot;&gt;T&lt;/font&gt;&lt;/b&gt;" style="rounded=0;whiteSpace=wrap;html=1;" parent="1" vertex="1">
          <mxGeometry x="260" y="140" width="40" height="40" as="geometry" />
        </mxCell>
        <mxCell id="KeehZXuGtCyTHZF6xTJI-25" style="edgeStyle=orthogonalEdgeStyle;rounded=0;orthogonalLoop=1;jettySize=auto;html=1;exitX=0.5;exitY=0;exitDx=0;exitDy=0;entryX=0;entryY=0.5;entryDx=0;entryDy=0;fontFamily=Lucida Console;fontSize=12;endArrow=blockThin;endFill=1;" parent="1" source="KeehZXuGtCyTHZF6xTJI-26" target="KeehZXuGtCyTHZF6xTJI-24" edge="1">
          <mxGeometry relative="1" as="geometry" />
        </mxCell>
        <mxCell id="KeehZXuGtCyTHZF6xTJI-26" value="&lt;font style=&quot;font-size: 12px;&quot;&gt;0&lt;br&gt;&lt;br&gt;1&lt;/font&gt;" style="shape=trapezoid;perimeter=trapezoidPerimeter;whiteSpace=wrap;html=1;fixedSize=1;fontFamily=Lucida Console;fontSize=16;direction=south;size=10;" parent="1" vertex="1">
          <mxGeometry x="200" y="120" width="30" height="80" as="geometry" />
        </mxCell>
        <mxCell id="KeehZXuGtCyTHZF6xTJI-27" value="&lt;span style=&quot;font-family: &amp;quot;Lucida Console&amp;quot;;&quot;&gt;m_valid&lt;/span&gt;" style="text;html=1;strokeColor=none;fillColor=none;align=left;verticalAlign=middle;whiteSpace=wrap;rounded=0;" parent="1" vertex="1">
          <mxGeometry x="680" y="180" width="80" height="20" as="geometry" />
        </mxCell>
        <mxCell id="KeehZXuGtCyTHZF6xTJI-28" value="&lt;font color=&quot;#007fff&quot; style=&quot;font-size: 10px;&quot; face=&quot;Lucida Console&quot;&gt;skd_vlaid&lt;/font&gt;" style="text;html=1;strokeColor=none;fillColor=none;align=center;verticalAlign=middle;whiteSpace=wrap;rounded=0;" parent="1" vertex="1">
          <mxGeometry x="240" y="90" width="70" height="20" as="geometry" />
        </mxCell>
        <mxCell id="KeehZXuGtCyTHZF6xTJI-29" value="&lt;font face=&quot;Lucida Console&quot; color=&quot;#007fff&quot;&gt;&lt;span style=&quot;font-size: 10px;&quot;&gt;out_valid&lt;/span&gt;&lt;/font&gt;" style="text;html=1;strokeColor=none;fillColor=none;align=center;verticalAlign=middle;whiteSpace=wrap;rounded=0;" parent="1" vertex="1">
          <mxGeometry x="395" y="170" width="60" height="20" as="geometry" />
        </mxCell>
        <mxCell id="KeehZXuGtCyTHZF6xTJI-30" value="" style="endArrow=blockThin;html=1;rounded=0;endFill=1;entryX=0.75;entryY=1;entryDx=0;entryDy=0;startArrow=oval;startFill=1;startSize=4;" parent="1" target="KeehZXuGtCyTHZF6xTJI-26" edge="1">
          <mxGeometry width="50" height="50" relative="1" as="geometry">
            <mxPoint x="180" y="210" as="sourcePoint" />
            <mxPoint x="150" y="160" as="targetPoint" />
            <Array as="points">
              <mxPoint x="180" y="180" />
            </Array>
          </mxGeometry>
        </mxCell>
        <mxCell id="KeehZXuGtCyTHZF6xTJI-31" value="" style="endArrow=blockThin;html=1;rounded=0;endFill=1;entryX=0.25;entryY=1;entryDx=0;entryDy=0;startArrow=oval;startFill=1;startSize=4;" parent="1" target="KeehZXuGtCyTHZF6xTJI-22" edge="1">
          <mxGeometry width="50" height="50" relative="1" as="geometry">
            <mxPoint x="310" y="160" as="sourcePoint" />
            <mxPoint x="210" y="190" as="targetPoint" />
            <Array as="points">
              <mxPoint x="310" y="170" />
            </Array>
          </mxGeometry>
        </mxCell>
        <mxCell id="KeehZXuGtCyTHZF6xTJI-32" value="" style="endArrow=blockThin;html=1;rounded=0;endFill=1;entryX=1;entryY=0.5;entryDx=0;entryDy=0;startArrow=none;startFill=0;startSize=4;exitX=0;exitY=0.5;exitDx=0;exitDy=0;" parent="1" source="KeehZXuGtCyTHZF6xTJI-5" target="KeehZXuGtCyTHZF6xTJI-4" edge="1">
          <mxGeometry width="50" height="50" relative="1" as="geometry">
            <mxPoint x="625" y="790" as="sourcePoint" />
            <mxPoint x="245" y="740" as="targetPoint" />
            <Array as="points" />
          </mxGeometry>
        </mxCell>
        <mxCell id="KeehZXuGtCyTHZF6xTJI-34" value="" style="endArrow=blockThin;html=1;rounded=0;endFill=1;entryX=1;entryY=0.5;entryDx=0;entryDy=0;startArrow=oval;startFill=1;startSize=4;" parent="1" target="KeehZXuGtCyTHZF6xTJI-26" edge="1">
          <mxGeometry width="50" height="50" relative="1" as="geometry">
            <mxPoint x="240" y="350" as="sourcePoint" />
            <mxPoint x="215" y="202.5" as="targetPoint" />
            <Array as="points">
              <mxPoint x="240" y="220" />
              <mxPoint x="220" y="220" />
            </Array>
          </mxGeometry>
        </mxCell>
        <mxCell id="KeehZXuGtCyTHZF6xTJI-36" value="" style="endArrow=blockThin;html=1;rounded=0;endFill=1;entryX=1;entryY=0.5;entryDx=0;entryDy=0;startArrow=oval;startFill=1;startSize=4;" parent="1" target="KeehZXuGtCyTHZF6xTJI-22" edge="1">
          <mxGeometry width="50" height="50" relative="1" as="geometry">
            <mxPoint x="370" y="370" as="sourcePoint" />
            <mxPoint x="345" y="215" as="targetPoint" />
            <Array as="points">
              <mxPoint x="370" y="240" />
              <mxPoint x="350" y="240" />
            </Array>
          </mxGeometry>
        </mxCell>
        <mxCell id="KeehZXuGtCyTHZF6xTJI-37" value="&lt;font style=&quot;font-size: 18px;&quot;&gt;passthrough skidbuffer&lt;/font&gt;" style="text;html=1;strokeColor=none;fillColor=none;align=left;verticalAlign=middle;whiteSpace=wrap;rounded=0;" parent="1" vertex="1">
          <mxGeometry x="80" y="60" width="260" height="20" as="geometry" />
        </mxCell>
        <mxCell id="KeehZXuGtCyTHZF6xTJI-39" value="&lt;span style=&quot;font-family: &amp;quot;Lucida Console&amp;quot;;&quot;&gt;s_valid&lt;/span&gt;" style="text;html=1;strokeColor=none;fillColor=none;align=right;verticalAlign=middle;whiteSpace=wrap;rounded=0;" parent="1" vertex="1">
          <mxGeometry x="80" y="700" width="70" height="20" as="geometry" />
        </mxCell>
        <mxCell id="KeehZXuGtCyTHZF6xTJI-41" style="edgeStyle=orthogonalEdgeStyle;rounded=0;orthogonalLoop=1;jettySize=auto;html=1;exitX=1;exitY=0.5;exitDx=0;exitDy=0;fontFamily=Lucida Console;fontSize=12;endArrow=blockThin;endFill=1;entryX=0.75;entryY=1;entryDx=0;entryDy=0;" parent="1" source="KeehZXuGtCyTHZF6xTJI-39" target="z7GN3xB81Pf33dpsRAf_-2" edge="1">
          <mxGeometry relative="1" as="geometry">
            <mxPoint x="440" y="760" as="targetPoint" />
            <mxPoint x="150" y="280" as="sourcePoint" />
            <Array as="points">
              <mxPoint x="210" y="710" />
              <mxPoint x="210" y="710" />
            </Array>
          </mxGeometry>
        </mxCell>
        <mxCell id="u1xTsTNM-pjZrwFGg7Qv-9" value="&amp;amp;" style="shape=or;whiteSpace=wrap;html=1;" parent="1" vertex="1">
          <mxGeometry x="350" y="730" width="25" height="40" as="geometry" />
        </mxCell>
        <mxCell id="z7GN3xB81Pf33dpsRAf_-1" value="" style="endArrow=blockThin;html=1;rounded=0;endFill=1;entryX=0.75;entryY=1;entryDx=0;entryDy=0;startArrow=oval;startFill=1;startSize=4;" parent="1" edge="1">
          <mxGeometry width="50" height="50" relative="1" as="geometry">
            <mxPoint x="330" y="790" as="sourcePoint" />
            <mxPoint x="350" y="759.9999999999999" as="targetPoint" />
            <Array as="points">
              <mxPoint x="330" y="760" />
            </Array>
          </mxGeometry>
        </mxCell>
        <mxCell id="z7GN3xB81Pf33dpsRAf_-2" value="&lt;font style=&quot;font-size: 12px;&quot;&gt;0&lt;br&gt;&lt;br&gt;1&lt;/font&gt;" style="shape=trapezoid;perimeter=trapezoidPerimeter;whiteSpace=wrap;html=1;fixedSize=1;fontFamily=Lucida Console;fontSize=16;direction=south;size=10;" parent="1" vertex="1">
          <mxGeometry x="400" y="650" width="30" height="80" as="geometry" />
        </mxCell>
        <mxCell id="z7GN3xB81Pf33dpsRAf_-3" style="edgeStyle=orthogonalEdgeStyle;rounded=0;orthogonalLoop=1;jettySize=auto;html=1;exitX=1;exitY=0.5;exitDx=0;exitDy=0;entryX=1;entryY=0.5;entryDx=0;entryDy=0;fontFamily=Lucida Console;fontSize=12;endArrow=blockThin;endFill=1;exitPerimeter=0;" parent="1" source="u1xTsTNM-pjZrwFGg7Qv-9" target="z7GN3xB81Pf33dpsRAf_-2" edge="1">
          <mxGeometry relative="1" as="geometry">
            <mxPoint x="280" y="800" as="sourcePoint" />
            <mxPoint x="160" y="800" as="targetPoint" />
            <Array as="points">
              <mxPoint x="415" y="750" />
            </Array>
          </mxGeometry>
        </mxCell>
        <mxCell id="z7GN3xB81Pf33dpsRAf_-5" style="edgeStyle=orthogonalEdgeStyle;rounded=0;orthogonalLoop=1;jettySize=auto;html=1;exitX=0.5;exitY=0;exitDx=0;exitDy=0;fontFamily=Lucida Console;fontSize=12;endArrow=blockThin;endFill=1;" parent="1" source="z7GN3xB81Pf33dpsRAf_-2" edge="1">
          <mxGeometry relative="1" as="geometry">
            <mxPoint x="680" y="690" as="targetPoint" />
            <mxPoint x="480" y="739.74" as="sourcePoint" />
            <Array as="points">
              <mxPoint x="560" y="690" />
              <mxPoint x="560" y="690" />
            </Array>
          </mxGeometry>
        </mxCell>
        <mxCell id="z7GN3xB81Pf33dpsRAf_-6" value="&lt;b&gt;&lt;font style=&quot;font-size: 16px;&quot;&gt;T&lt;/font&gt;&lt;/b&gt;" style="rounded=0;whiteSpace=wrap;html=1;" parent="1" vertex="1">
          <mxGeometry x="330" y="650" width="40" height="40" as="geometry" />
        </mxCell>
        <mxCell id="z7GN3xB81Pf33dpsRAf_-7" value="" style="endArrow=blockThin;html=1;rounded=0;endFill=1;entryX=0;entryY=0.5;entryDx=0;entryDy=0;startArrow=oval;startFill=1;startSize=4;" parent="1" target="z7GN3xB81Pf33dpsRAf_-6" edge="1">
          <mxGeometry width="50" height="50" relative="1" as="geometry">
            <mxPoint x="440" y="690" as="sourcePoint" />
            <mxPoint x="360" y="770" as="targetPoint" />
            <Array as="points">
              <mxPoint x="440" y="640" />
              <mxPoint x="310" y="640" />
              <mxPoint x="310" y="670" />
            </Array>
          </mxGeometry>
        </mxCell>
        <mxCell id="z7GN3xB81Pf33dpsRAf_-8" style="edgeStyle=orthogonalEdgeStyle;rounded=0;orthogonalLoop=1;jettySize=auto;html=1;exitX=1;exitY=0.5;exitDx=0;exitDy=0;entryX=0.25;entryY=1;entryDx=0;entryDy=0;fontFamily=Lucida Console;fontSize=12;endArrow=blockThin;endFill=1;" parent="1" source="z7GN3xB81Pf33dpsRAf_-6" target="z7GN3xB81Pf33dpsRAf_-2" edge="1">
          <mxGeometry relative="1" as="geometry">
            <mxPoint x="385" y="760" as="sourcePoint" />
            <mxPoint x="420" y="735" as="targetPoint" />
            <Array as="points">
              <mxPoint x="370" y="670" />
              <mxPoint x="370" y="670" />
            </Array>
          </mxGeometry>
        </mxCell>
        <mxCell id="z7GN3xB81Pf33dpsRAf_-9" value="&lt;font style=&quot;font-size: 12px;&quot;&gt;0&lt;br&gt;&lt;br&gt;1&lt;/font&gt;" style="shape=trapezoid;perimeter=trapezoidPerimeter;whiteSpace=wrap;html=1;fixedSize=1;fontFamily=Lucida Console;fontSize=16;direction=south;size=10;" parent="1" vertex="1">
          <mxGeometry x="500" y="540" width="30" height="80" as="geometry" />
        </mxCell>
        <mxCell id="z7GN3xB81Pf33dpsRAf_-10" value="&lt;b&gt;&lt;font style=&quot;font-size: 16px;&quot;&gt;T&lt;/font&gt;&lt;/b&gt;" style="rounded=0;whiteSpace=wrap;html=1;" parent="1" vertex="1">
          <mxGeometry x="430" y="540" width="40" height="40" as="geometry" />
        </mxCell>
        <mxCell id="z7GN3xB81Pf33dpsRAf_-11" value="" style="endArrow=blockThin;html=1;rounded=0;endFill=1;entryX=0;entryY=0.5;entryDx=0;entryDy=0;startArrow=oval;startFill=1;startSize=4;" parent="1" target="z7GN3xB81Pf33dpsRAf_-10" edge="1">
          <mxGeometry width="50" height="50" relative="1" as="geometry">
            <mxPoint x="400" y="600" as="sourcePoint" />
            <mxPoint x="460" y="660" as="targetPoint" />
            <Array as="points">
              <mxPoint x="400" y="560" />
            </Array>
          </mxGeometry>
        </mxCell>
        <mxCell id="z7GN3xB81Pf33dpsRAf_-12" style="edgeStyle=orthogonalEdgeStyle;rounded=0;orthogonalLoop=1;jettySize=auto;html=1;exitX=1;exitY=0.5;exitDx=0;exitDy=0;entryX=0.25;entryY=1;entryDx=0;entryDy=0;fontFamily=Lucida Console;fontSize=12;endArrow=blockThin;endFill=1;" parent="1" source="z7GN3xB81Pf33dpsRAf_-10" target="z7GN3xB81Pf33dpsRAf_-9" edge="1">
          <mxGeometry relative="1" as="geometry">
            <mxPoint x="485" y="650" as="sourcePoint" />
            <mxPoint x="520" y="625" as="targetPoint" />
            <Array as="points">
              <mxPoint x="470" y="560" />
              <mxPoint x="470" y="560" />
            </Array>
          </mxGeometry>
        </mxCell>
        <mxCell id="z7GN3xB81Pf33dpsRAf_-13" style="edgeStyle=orthogonalEdgeStyle;rounded=0;orthogonalLoop=1;jettySize=auto;html=1;exitX=0.5;exitY=0;exitDx=0;exitDy=0;fontFamily=Lucida Console;fontSize=12;endArrow=blockThin;endFill=1;" parent="1" source="z7GN3xB81Pf33dpsRAf_-9" edge="1">
          <mxGeometry relative="1" as="geometry">
            <mxPoint x="680" y="580" as="targetPoint" />
            <mxPoint x="440" y="680" as="sourcePoint" />
            <Array as="points">
              <mxPoint x="590" y="580" />
              <mxPoint x="590" y="580" />
            </Array>
          </mxGeometry>
        </mxCell>
        <mxCell id="z7GN3xB81Pf33dpsRAf_-14" value="&amp;amp;" style="shape=or;whiteSpace=wrap;html=1;direction=north;" parent="1" vertex="1">
          <mxGeometry x="495" y="640" width="40" height="25" as="geometry" />
        </mxCell>
        <mxCell id="z7GN3xB81Pf33dpsRAf_-15" style="edgeStyle=orthogonalEdgeStyle;rounded=0;orthogonalLoop=1;jettySize=auto;html=1;exitX=1;exitY=0.5;exitDx=0;exitDy=0;entryX=1;entryY=0.5;entryDx=0;entryDy=0;fontFamily=Lucida Console;fontSize=12;endArrow=blockThin;endFill=1;exitPerimeter=0;" parent="1" source="z7GN3xB81Pf33dpsRAf_-14" target="z7GN3xB81Pf33dpsRAf_-9" edge="1">
          <mxGeometry relative="1" as="geometry">
            <mxPoint x="385" y="760" as="sourcePoint" />
            <mxPoint x="425" y="735" as="targetPoint" />
            <Array as="points">
              <mxPoint x="515" y="630" />
              <mxPoint x="515" y="630" />
            </Array>
          </mxGeometry>
        </mxCell>
        <mxCell id="z7GN3xB81Pf33dpsRAf_-16" value="" style="endArrow=blockThin;html=1;rounded=0;endFill=1;entryX=0;entryY=0.25;entryDx=0;entryDy=0;startArrow=oval;startFill=1;startSize=4;entryPerimeter=0;" parent="1" target="z7GN3xB81Pf33dpsRAf_-14" edge="1">
          <mxGeometry width="50" height="50" relative="1" as="geometry">
            <mxPoint x="505" y="690" as="sourcePoint" />
            <mxPoint x="525" y="660" as="targetPoint" />
            <Array as="points" />
          </mxGeometry>
        </mxCell>
        <mxCell id="z7GN3xB81Pf33dpsRAf_-17" value="" style="endArrow=blockThin;html=1;rounded=0;endFill=1;entryX=0;entryY=0.75;entryDx=0;entryDy=0;startArrow=oval;startFill=1;startSize=4;entryPerimeter=0;" parent="1" target="z7GN3xB81Pf33dpsRAf_-14" edge="1">
          <mxGeometry width="50" height="50" relative="1" as="geometry">
            <mxPoint x="525" y="790" as="sourcePoint" />
            <mxPoint x="515" y="675" as="targetPoint" />
            <Array as="points" />
          </mxGeometry>
        </mxCell>
        <mxCell id="z7GN3xB81Pf33dpsRAf_-19" style="edgeStyle=orthogonalEdgeStyle;rounded=0;orthogonalLoop=1;jettySize=auto;html=1;fontFamily=Lucida Console;fontSize=12;endArrow=blockThin;endFill=1;entryX=0.75;entryY=1;entryDx=0;entryDy=0;" parent="1" target="z7GN3xB81Pf33dpsRAf_-9" edge="1">
          <mxGeometry relative="1" as="geometry">
            <mxPoint x="410" y="720" as="targetPoint" />
            <mxPoint x="150" y="600" as="sourcePoint" />
            <Array as="points">
              <mxPoint x="220" y="600" />
              <mxPoint x="220" y="600" />
            </Array>
          </mxGeometry>
        </mxCell>
      </root>
    </mxGraphModel>
  </diagram>
</mxfile>
